<?xml version="1.0" encoding="iso-8859-1"?>
<!-- Generator: Adobe Illustrator 19.0.0, SVG Export Plug-In . SVG Version: 6.00 Build 0)  -->
<svg version="1.1" id="Capa_1" xmlns="http://www.w3.org/2000/svg" xmlns:xlink="http://www.w3.org/1999/xlink" x="0px" y="0px"
	 viewBox="0 0 512 512" style="enable-background:new 0 0 512 512;" xml:space="preserve">
<path style="fill:#FF993B;" d="M76,508V4c0-2.209,1.791-4,4-4h352c2.209,0,4,1.791,4,4v504c0,2.209-1.791,4-4,4H80
	C77.791,512,76,510.209,76,508z"/>
<path style="fill:#FF7B48;" d="M405.143,512V0H432c2.209,0,4,1.791,4,4v504c0,2.209-1.791,4-4,4H405.143z"/>
<path style="fill:#7A666C;" d="M76,51.509V4c0-2.209,1.791-4,4-4h352c2.209,0,4,1.791,4,4v47.509H76z"/>
<path style="fill:#6A545A;" d="M405.143,51.509V0H432c2.209,0,4,1.791,4,4v47.509H405.143z"/>
<path style="fill:#FF5A51;" d="M76,51.509V4c0-2.209,1.791-4,4-4h111.2v51.509H76z"/>
<path style="fill:#FFBD2A;" d="M364.83,431.844L364.83,431.844c-5.917,5.917-15.511,5.917-21.428,0l-48.807-48.807l21.428-21.428
	l48.807,48.807C370.747,416.333,370.747,425.926,364.83,431.844z"/>
<path style="fill:#FFD681;" d="M337.457,340.174l-64.297,64.297c-2.55,2.55-6.91,0.744-6.91-2.862v-64.297
	c0-2.236,1.812-4.048,4.048-4.048h64.297C338.201,333.264,340.007,337.624,337.457,340.174z"/>
<g>
	<path style="fill:#E75955;" d="M384.893,159.163H127.107c-2.209,0-4-1.791-4-4v-51.751c0-2.209,1.791-4,4-4h257.787
		c2.209,0,4,1.791,4,4v51.751C388.893,157.372,387.103,159.163,384.893,159.163z"/>
	<path style="fill:#E75955;" d="M384.893,265.272H127.107c-2.209,0-4-1.791-4-4v-51.751c0-2.209,1.791-4,4-4h257.787
		c2.209,0,4,1.791,4,4v51.751C388.893,263.481,387.103,265.272,384.893,265.272z"/>
</g>
<g>
	<path style="fill:#A85759;" d="M178.857,363.139h-51.751c-2.209,0-4-1.791-4-4v-51.75c0-2.209,1.791-4,4-4h51.751
		c2.209,0,4,1.791,4,4v51.75C182.857,361.348,181.066,363.139,178.857,363.139z"/>
	<path style="fill:#A85759;" d="M178.857,457.915h-51.751c-2.209,0-4-1.791-4-4v-51.751c0-2.209,1.791-4,4-4h51.751
		c2.209,0,4,1.791,4,4v51.751C182.857,456.125,181.066,457.915,178.857,457.915z"/>
</g>
<g>
	<circle style="fill:#FFBD2A;" cx="105.59" cy="25.755" r="7.726"/>
	<circle style="fill:#FFBD2A;" cx="134.44" cy="25.755" r="7.726"/>
	<circle style="fill:#FFBD2A;" cx="163.28" cy="25.755" r="7.726"/>
	<path style="fill:#FFBD2A;" d="M152.978,349.005c-1.402,0-2.815-0.393-4.068-1.202l-11.332-7.326
		c-3.479-2.249-4.476-6.892-2.227-10.37c2.249-3.479,6.891-4.477,10.37-2.227l5.83,3.769l8.099-9.448
		c2.696-3.145,7.43-3.509,10.575-0.813s3.509,7.43,0.813,10.575l-12.362,14.422C157.205,348.103,155.104,349.005,152.978,349.005z"
		/>
</g>
<g>
</g>
<g>
</g>
<g>
</g>
<g>
</g>
<g>
</g>
<g>
</g>
<g>
</g>
<g>
</g>
<g>
</g>
<g>
</g>
<g>
</g>
<g>
</g>
<g>
</g>
<g>
</g>
<g>
</g>
</svg>
